<svg id="visual" viewBox="0 0 900 70" width="900" height="70" xmlns="http://www.w3.org/2000/svg" xmlns:xlink="http://www.w3.org/1999/xlink" version="1.1"><path d="M0 18L6.8 20.8C13.7 23.7 27.3 29.3 41 32C54.7 34.7 68.3 34.3 82 31.7C95.7 29 109.3 24 123 21C136.7 18 150.3 17 164 16.2C177.7 15.3 191.3 14.7 204.8 15.7C218.3 16.7 231.7 19.3 245.2 21.5C258.7 23.7 272.3 25.3 286 24.8C299.7 24.3 313.3 21.7 327 19.7C340.7 17.7 354.3 16.3 368 18.8C381.7 21.3 395.3 27.7 409 30.2C422.7 32.7 436.3 31.3 450 29.2C463.7 27 477.3 24 491 24.2C504.7 24.3 518.3 27.7 532 27.7C545.7 27.7 559.3 24.3 573 21.3C586.7 18.3 600.3 15.7 614 15.7C627.7 15.7 641.3 18.3 654.8 20.7C668.3 23 681.7 25 695.2 25.7C708.7 26.3 722.3 25.7 736 23.8C749.7 22 763.3 19 777 20.7C790.7 22.3 804.3 28.7 818 31.2C831.7 33.7 845.3 32.3 859 29.5C872.7 26.7 886.3 22.3 893.2 20.2L900 18L900 71L893.2 71C886.3 71 872.7 71 859 71C845.3 71 831.7 71 818 71C804.3 71 790.7 71 777 71C763.3 71 749.7 71 736 71C722.3 71 708.7 71 695.2 71C681.7 71 668.3 71 654.8 71C641.3 71 627.7 71 614 71C600.3 71 586.7 71 573 71C559.3 71 545.7 71 532 71C518.3 71 504.7 71 491 71C477.3 71 463.7 71 450 71C436.3 71 422.7 71 409 71C395.3 71 381.7 71 368 71C354.3 71 340.7 71 327 71C313.3 71 299.7 71 286 71C272.3 71 258.7 71 245.2 71C231.7 71 218.3 71 204.8 71C191.3 71 177.7 71 164 71C150.3 71 136.7 71 123 71C109.3 71 95.7 71 82 71C68.3 71 54.7 71 41 71C27.3 71 13.7 71 6.8 71L0 71Z" fill="#00ff62"></path><path d="M0 30L6.8 29.5C13.7 29 27.3 28 41 28.2C54.7 28.3 68.3 29.7 82 32.3C95.7 35 109.3 39 123 40.7C136.7 42.3 150.3 41.7 164 41C177.7 40.3 191.3 39.7 204.8 37.7C218.3 35.7 231.7 32.3 245.2 30.8C258.7 29.3 272.3 29.7 286 32.2C299.7 34.7 313.3 39.3 327 41C340.7 42.7 354.3 41.3 368 41.2C381.7 41 395.3 42 409 41.2C422.7 40.3 436.3 37.7 450 36.3C463.7 35 477.3 35 491 36.2C504.7 37.3 518.3 39.7 532 37.8C545.7 36 559.3 30 573 27.2C586.7 24.3 600.3 24.7 614 26.5C627.7 28.3 641.3 31.7 654.8 33.8C668.3 36 681.7 37 695.2 36C708.7 35 722.3 32 736 32.7C749.7 33.3 763.3 37.7 777 38.3C790.7 39 804.3 36 818 33.8C831.7 31.7 845.3 30.3 859 30.5C872.7 30.7 886.3 32.3 893.2 33.2L900 34L900 71L893.2 71C886.3 71 872.7 71 859 71C845.3 71 831.7 71 818 71C804.3 71 790.7 71 777 71C763.3 71 749.7 71 736 71C722.3 71 708.7 71 695.2 71C681.7 71 668.3 71 654.8 71C641.3 71 627.7 71 614 71C600.3 71 586.7 71 573 71C559.3 71 545.7 71 532 71C518.3 71 504.7 71 491 71C477.3 71 463.7 71 450 71C436.3 71 422.7 71 409 71C395.3 71 381.7 71 368 71C354.3 71 340.7 71 327 71C313.3 71 299.7 71 286 71C272.3 71 258.7 71 245.2 71C231.7 71 218.3 71 204.8 71C191.3 71 177.7 71 164 71C150.3 71 136.7 71 123 71C109.3 71 95.7 71 82 71C68.3 71 54.7 71 41 71C27.3 71 13.7 71 6.8 71L0 71Z" fill="#0ce963"></path><path d="M0 50L6.8 49.3C13.7 48.7 27.3 47.3 41 46.7C54.7 46 68.3 46 82 44.2C95.7 42.3 109.3 38.7 123 38.3C136.7 38 150.3 41 164 43.7C177.7 46.3 191.3 48.7 204.8 49.7C218.3 50.7 231.7 50.3 245.2 47.8C258.7 45.3 272.3 40.7 286 39C299.7 37.3 313.3 38.7 327 41.2C340.7 43.7 354.3 47.3 368 48.7C381.7 50 395.3 49 409 46.8C422.7 44.7 436.3 41.3 450 38.8C463.7 36.3 477.3 34.7 491 35.3C504.7 36 518.3 39 532 41.3C545.7 43.7 559.3 45.3 573 46C586.7 46.7 600.3 46.3 614 45.8C627.7 45.3 641.3 44.7 654.8 44.3C668.3 44 681.7 44 695.2 43.2C708.7 42.3 722.3 40.7 736 41.8C749.7 43 763.3 47 777 46.5C790.7 46 804.3 41 818 40.8C831.7 40.7 845.3 45.3 859 47.5C872.7 49.7 886.3 49.3 893.2 49.2L900 49L900 71L893.2 71C886.3 71 872.7 71 859 71C845.3 71 831.7 71 818 71C804.3 71 790.7 71 777 71C763.3 71 749.7 71 736 71C722.3 71 708.7 71 695.2 71C681.7 71 668.3 71 654.8 71C641.3 71 627.7 71 614 71C600.3 71 586.7 71 573 71C559.3 71 545.7 71 532 71C518.3 71 504.7 71 491 71C477.3 71 463.7 71 450 71C436.3 71 422.7 71 409 71C395.3 71 381.7 71 368 71C354.3 71 340.7 71 327 71C313.3 71 299.7 71 286 71C272.3 71 258.7 71 245.2 71C231.7 71 218.3 71 204.8 71C191.3 71 177.7 71 164 71C150.3 71 136.7 71 123 71C109.3 71 95.7 71 82 71C68.3 71 54.7 71 41 71C27.3 71 13.7 71 6.8 71L0 71Z" fill="#19d462"></path><path d="M0 47L6.8 49C13.7 51 27.3 55 41 54.5C54.7 54 68.3 49 82 47.2C95.7 45.3 109.3 46.7 123 46.7C136.7 46.7 150.3 45.3 164 46.5C177.7 47.7 191.3 51.3 204.8 51.8C218.3 52.3 231.7 49.7 245.2 49.2C258.7 48.7 272.3 50.3 286 49.8C299.7 49.3 313.3 46.7 327 47.2C340.7 47.7 354.3 51.3 368 52C381.7 52.7 395.3 50.3 409 51.2C422.7 52 436.3 56 450 55.5C463.7 55 477.3 50 491 47.2C504.7 44.3 518.3 43.7 532 44.3C545.7 45 559.3 47 573 48.5C586.7 50 600.3 51 614 50.5C627.7 50 641.3 48 654.8 48.2C668.3 48.3 681.7 50.7 695.2 53C708.7 55.3 722.3 57.7 736 56C749.7 54.3 763.3 48.7 777 47.3C790.7 46 804.3 49 818 48.7C831.7 48.3 845.3 44.7 859 44.2C872.7 43.7 886.3 46.3 893.2 47.7L900 49L900 71L893.2 71C886.3 71 872.7 71 859 71C845.3 71 831.7 71 818 71C804.3 71 790.7 71 777 71C763.3 71 749.7 71 736 71C722.3 71 708.7 71 695.2 71C681.7 71 668.3 71 654.8 71C641.3 71 627.7 71 614 71C600.3 71 586.7 71 573 71C559.3 71 545.7 71 532 71C518.3 71 504.7 71 491 71C477.3 71 463.7 71 450 71C436.3 71 422.7 71 409 71C395.3 71 381.7 71 368 71C354.3 71 340.7 71 327 71C313.3 71 299.7 71 286 71C272.3 71 258.7 71 245.2 71C231.7 71 218.3 71 204.8 71C191.3 71 177.7 71 164 71C150.3 71 136.7 71 123 71C109.3 71 95.7 71 82 71C68.3 71 54.7 71 41 71C27.3 71 13.7 71 6.8 71L0 71Z" fill="#23bf60"></path><path d="M0 63L6.8 63.8C13.7 64.7 27.3 66.3 41 65.7C54.7 65 68.3 62 82 59.8C95.7 57.7 109.3 56.3 123 55C136.7 53.7 150.3 52.3 164 51.8C177.7 51.3 191.3 51.7 204.8 52.7C218.3 53.7 231.7 55.3 245.2 56.7C258.7 58 272.3 59 286 57.8C299.7 56.7 313.3 53.3 327 53.2C340.7 53 354.3 56 368 58.8C381.7 61.7 395.3 64.3 409 64.3C422.7 64.3 436.3 61.7 450 59.5C463.7 57.3 477.3 55.7 491 55.2C504.7 54.7 518.3 55.3 532 55.5C545.7 55.7 559.3 55.3 573 55.3C586.7 55.3 600.3 55.7 614 55.8C627.7 56 641.3 56 654.8 57.8C668.3 59.7 681.7 63.3 695.2 65.3C708.7 67.3 722.3 67.7 736 65.5C749.7 63.3 763.3 58.7 777 55.7C790.7 52.7 804.3 51.3 818 53.3C831.7 55.3 845.3 60.7 859 63.2C872.7 65.7 886.3 65.3 893.2 65.2L900 65L900 71L893.2 71C886.3 71 872.7 71 859 71C845.3 71 831.7 71 818 71C804.3 71 790.7 71 777 71C763.3 71 749.7 71 736 71C722.3 71 708.7 71 695.2 71C681.7 71 668.3 71 654.8 71C641.3 71 627.7 71 614 71C600.3 71 586.7 71 573 71C559.3 71 545.7 71 532 71C518.3 71 504.7 71 491 71C477.3 71 463.7 71 450 71C436.3 71 422.7 71 409 71C395.3 71 381.7 71 368 71C354.3 71 340.7 71 327 71C313.3 71 299.7 71 286 71C272.3 71 258.7 71 245.2 71C231.7 71 218.3 71 204.8 71C191.3 71 177.7 71 164 71C150.3 71 136.7 71 123 71C109.3 71 95.7 71 82 71C68.3 71 54.7 71 41 71C27.3 71 13.7 71 6.8 71L0 71Z" fill="#2aaa5c"></path></svg>